<svg xmlns="http://www.w3.org/2000/svg" viewBox="0 0 340 340"><g data-name="Layer 10"><path d="m99.77 40.079 5.3 9.035s10.483 63.969-50.277 78.494c0 0-25.567-17.523-22.379-50.984z" style="fill:#b25858"/><path d="M105.435 52.249c-.179-2-.364-3.135-.364-3.135l-12.317-21c-34 9.321-55 27.632-55 27.632-5.646 13.818-6.5 25.718-4.891 35.638a147.858 147.858 0 0 1 72.572-39.135z" style="fill:#b25858"/><path d="M19.805 127.608s-5.184 46.553 40.934 59.79c23.862 6.849 42.855-7.6 55.628-23.134z" style="fill:#595975"/><path d="M323.728 46.56a14.116 14.116 0 0 0-4.059-18.353L295.54 10.793a14.115 14.115 0 0 0-18.7 1.929c-16.169 17.74-52.527 61.769-90.174 135.374 0 0-5.444 20.072 7.1 29.127s29.77-2.321 29.77-2.321c58.077-58.969 88.442-107.394 100.192-128.342z" style="fill:#ffd0b7"/><path d="M103.494 318.63c48.909-72.858 93.583-118 93.583-118q14.1-13.137 26.464-25.733a47.158 47.158 0 0 1-10.846 1.585 24.461 24.461 0 0 1-24.184-17.455 47.14 47.14 0 0 1-1.914-10.793q-8.031 15.71-16.086 33.223s-28.765 56.619-82.506 125.99z" style="fill:#f49a82"/><path d="M101.809 331.216a62.221 62.221 0 0 1-25.219-18.2 9.662 9.662 0 0 1-.369-11.842 9.722 9.722 0 0 1 14.457-1.435 104.853 104.853 0 0 0 19.294 13.925 9.722 9.722 0 0 1 3.193 14.173 9.664 9.664 0 0 1-11.356 3.379z" style="fill:#f49a82"/><path d="M92.754 28.118S109.4 61.143 86.613 102c-6.092 10.924-14.448 15.984-22.646 17.362 0 0 11.661 30.876 68.618 39.471a124.4 124.4 0 0 0 18.934-17.474c12.412-34.426 19.63-65.973 12.589-89.615A55.548 55.548 0 0 0 151.4 40.052a16.609 16.609 0 0 1-7.389-4.322 82.724 82.724 0 0 0-22.683-7.414 19.206 19.206 0 0 1-7.328-.989 78 78 0 0 0-21.246.791z" style="fill:#d67f7b"/><path d="M84.537 127.608c-11.711-2.615-17.7-6.025-20.571-8.25a30.183 30.183 0 0 1-13.428-.826s3.25 28.707 75.98 44.41a71.026 71.026 0 0 0 6.067-4.107c-8.736-14.619-30.303-27.264-48.048-31.227z" style="fill:#b25858"/><path d="M37.754 55.75s-8.824 32.064 9.094 56.583A50.631 50.631 0 0 0 73.91 130.9c13.762 3.941 38.205 13.218 52.608 32.041 0 0-39.4 28.78-80.037 4.31-21.2-12.769-29.108-29.55-31.037-45.843-1.972-16.656-3.69-46.29 22.31-65.658z" style="fill:#d67f7b"/><path d="M166.922 55.75c1.305 10.486-.284 26.179-11.961 46.886-1.954 3.464-4.1 6.8-6.356 10.08-3.367 4.9-11.777 19.777 6.015 24.987a122.434 122.434 0 0 0 16.124-25.485c9.249-19.697 7.356-41.002-3.822-56.468z" style="fill:#b25858"/><path d="m275.61 264.643.312.51 2.737 5.6a36.041 36.041 0 0 1-14.59 43.521l-.387.238-5.593 2.761a36.042 36.042 0 0 1-43.079-13.653l-3-5.487a36.039 36.039 0 0 1 13.79-44.914l5.544-2.867a36.04 36.04 0 0 1 44.266 14.291z" style="fill:#fff"/><path d="M151.489 114.7c2.565-3.73 4.7-7.113 6.52-10.345 8.074-14.317 11.706-30.12 12.778-42.321a50.208 50.208 0 0 0-3.835-6.242l-.02-.049a48.73 48.73 0 0 0-2.832-3.99c.526 11.308-2.164 31.388-12.188 49.164-1.719 3.048-3.744 6.259-6.191 9.815l-.2.292c-2.268 3.287-7.582 10.982-4.848 19.111 1.5 4.449 5.154 8.191 10.884 11.183q1.53-1.734 3.069-3.61l.011-.025c.5-.615 1.006-1.257 1.508-1.895-4.816-2.244-7.842-4.925-8.837-7.884-1.616-4.806 2.02-10.073 3.974-12.9z" style="fill:#464659"/><path d="m267.346 296.918-.405.248-5.842 2.885a37.649 37.649 0 0 1-45-14.262l-3.132-5.732a37.368 37.368 0 0 1-2.865-10.405 37.62 37.62 0 0 0 .437 29.123l3.132 5.732a37.65 37.65 0 0 0 45 14.262l5.841-2.885.405-.248A37.635 37.635 0 0 0 282.368 279a37.461 37.461 0 0 1-15.022 17.918z" style="fill:#d6d9ec"/><path d="M280.15 270.178a37.759 37.759 0 0 0-2.86-5.845 38.976 38.976 0 0 0-5.246 2.729 39.766 39.766 0 0 0-4.443 3.217l-1.057-1.182a3.25 3.25 0 1 0-4.843 4.334l1.269 1.418a38.424 38.424 0 0 0-5.673 8.8l-1.42-.422a3.249 3.249 0 0 0-1.853 6.229l1.046.311a38.4 38.4 0 0 0-1.316 11.842l-1.294.268a3.228 3.228 0 0 0-1.187.506s1.393 1.6 5.624.5 3.94-2.739 3.94-2.739l-.6.125a31.988 31.988 0 0 1 1.079-8.646l2.049.61a3.249 3.249 0 0 0 1.853-6.229l-1.589-.473a31.934 31.934 0 0 1 3.728-5.787l.219.245a3.249 3.249 0 1 0 4.843-4.333l-.474-.53a32.991 32.991 0 0 1 3.539-2.55 32.446 32.446 0 0 1 4.666-2.398zM228.129 297.258a3.231 3.231 0 0 0-.738-1.921l-.492-.6a38.334 38.334 0 0 0 6.89-11.3l1.668.5a3.249 3.249 0 0 0 1.853-6.229l-1.664-.5a38.684 38.684 0 0 0 .494-13.321l2.087-.559a3.249 3.249 0 1 0-1.68-6.278l-1.833.491a38.98 38.98 0 0 0-3.981-8.667 37.8 37.8 0 0 0-5.6 2.864c-.065.041-.127.085-.192.126.062.1.125.191.185.289a32.438 32.438 0 0 1 3.3 7.071l-1.138.3a3.249 3.249 0 1 0 1.68 6.278l.839-.225a32.119 32.119 0 0 1-.412 9.767l-.846-.251a3.249 3.249 0 0 0-1.853 6.229l.827.246a31.892 31.892 0 0 1-4.829 8.063l-.216-.263a3.251 3.251 0 0 0-4.242-.683 11.848 11.848 0 0 0 3.645 6.035c3.199 3.101 6.248 2.538 6.248 2.538z" style="fill:#ff7d97"/><path d="M264.508 315.876a32.563 32.563 0 0 1-3.528-9.123l1.7-.351a3.249 3.249 0 0 0-1.316-6.364l-.527.109a37.358 37.358 0 0 1-9.6 2.268 3.248 3.248 0 0 0 1.878 5.9 3.326 3.326 0 0 0 .661-.068l.834-.173a39.125 39.125 0 0 0 4.058 10.689 37.849 37.849 0 0 0 5.84-2.887zM210.547 298.772a37.8 37.8 0 0 0 2.529 4.808c.2.314.4.615.606.92a38.214 38.214 0 0 0 8.509-5.255l.184.224a3.24 3.24 0 0 0 5.743-2.21 37.369 37.369 0 0 1-9.872-8.556 3.143 3.143 0 0 0-.783 4.8l.6.724a31.464 31.464 0 0 1-7.513 4.543z" style="fill:#d34b72"/><path d="M16.646 140.2c1.795 14.775 9.784 40.99 43.127 50.56a47.731 47.731 0 0 0 13.209 1.914c13.35 0 26.247-5.983 38.48-17.881.039-.038.066-.084.1-.123a83.051 83.051 0 0 0 16.862-8.792c1.676-.99 15.281-9.307 28.907-25.956.017-.021.028-.046.045-.068a126.048 126.048 0 0 0 16.533-26.151c9.482-20.19 7.944-43.065-3.994-59.776-.012-.019-.017-.04-.03-.059-16.083-25.38-52.076-33.984-77.776-29.193-.043.008-.081.029-.123.038s-.107.013-.161.028C57.941 34.03 36.955 51.81 35.516 53.054 9.432 72.6 9.579 101.651 11.968 121.821a63.719 63.719 0 0 0 4.664 17.7 3.487 3.487 0 0 0 .014.679zm45.059 43.832c-17.811-5.111-27.595-15.352-32.86-26.232a76.869 76.869 0 0 0 15.83 12.452 70.9 70.9 0 0 0 36.937 10.341 76.2 76.2 0 0 0 12.305-1.025c-10.446 6.097-21.233 7.617-32.212 4.466zM170.309 69.6c4.577 12.747 3.727 27.373-2.733 41.128a118.736 118.736 0 0 1-14.148 22.872c-3.13-1.261-5.1-2.984-5.863-5.137-1.753-4.926 2.561-11.777 3.924-13.759 2.565-3.73 4.7-7.113 6.52-10.345 7.775-13.791 11.156-25.465 12.3-34.759zm-55.973-38.754a103.722 103.722 0 0 1 2.034 16.5 53.11 53.11 0 0 0-2.628-.723 3.5 3.5 0 1 0-1.621 6.81c.031.008 1.674.406 4.338 1.275a91.6 91.6 0 0 1-7.527 35.254 3.5 3.5 0 1 0 6.393 2.852 97.739 97.739 0 0 0 8.1-35.527q1.356.563 2.808 1.213a3.5 3.5 0 1 0 2.875-6.382c-2-.9-3.876-1.67-5.6-2.331A112.324 112.324 0 0 0 121.7 31.92a78.181 78.181 0 0 1 21.934 7.585 96.471 96.471 0 0 1 .471 21.046c-.443-.308-.885-.616-1.338-.919a3.5 3.5 0 0 0-3.889 5.821q2.2 1.467 4.2 3.034c-1.772 10.165-5.612 21.263-13.486 30.261a3.5 3.5 0 0 0 5.268 4.61c7.809-8.925 12.082-19.456 14.341-29.428.268.273 2.417 1.927 3.35 1.927a3.5 3.5 0 0 0 2.552-5.895q-2.066-2.2-4.439-4.282a105.144 105.144 0 0 0 .537-21.45 49.828 49.828 0 0 1 12.331 12.733c.97 9.149-.371 24-11.626 43.954-1.719 3.048-3.744 6.259-6.191 9.815-2.926 4.256-7.436 12.523-4.752 20.073a15.1 15.1 0 0 0 7.816 8.356 118 118 0 0 1-21.52 19.146c-15.254-18.024-39.143-26.977-52.391-30.771a49.269 49.269 0 0 1-10.954-4.625c10.452-1.572 19.669-8.3 25.75-19.2 18.837-33.776 11.852-62.219 8.025-72.8a77.344 77.344 0 0 1 16.647-.065zM83.556 100.3c-9.432 16.912-23.394 16.534-28.957 15.586h-.034a44.061 44.061 0 0 1-4.892-5.612 54.112 54.112 0 0 1-9.145-21.29A144.8 144.8 0 0 1 95.042 58.6c-.114 11.7-2.806 26.134-11.486 41.7zm7.165-67.959a71.809 71.809 0 0 1 4.063 19.037 156.04 156.04 0 0 0-9.235 2.973c.49-9.276-1.931-15.558-3.873-19.014a149.554 149.554 0 0 1 9.045-2.999zm-15.644 5.582c1.469 2.266 4.582 8.508 3.194 19.254q-3.828 1.6-7.4 3.306c-.068-9.233-2.782-15.3-4.761-18.483a160.869 160.869 0 0 1 8.967-4.077zM59.9 45.237c1.533 2.248 4.629 8.169 3.888 18.645-.006.077.007.15.007.226a152.543 152.543 0 0 0-8.639 5.092 35.292 35.292 0 0 0-3.509-19.094 149.48 149.48 0 0 1 8.253-4.869zM40.883 57.7a98.453 98.453 0 0 1 4.894-3.675 31.3 31.3 0 0 1 1.287 20.69 147.339 147.339 0 0 0-7.7 6.007A80.459 80.459 0 0 1 40.883 57.7zm-8.309 7.319C31.255 76.967 31.5 97.258 44.021 114.4a54.365 54.365 0 0 0 28.925 19.867c12.293 3.521 34.3 11.705 48.381 27.855-6.289 3.749-21.438 11.439-39.885 11.437a64.043 64.043 0 0 1-11.609-1.059 23.653 23.653 0 0 1 4.128-4.925 3.5 3.5 0 0 0-4.717-5.173 29.7 29.7 0 0 0-6.464 8.366 64.152 64.152 0 0 1-10.4-4.238 36.248 36.248 0 0 1 6.067-6.717 3.5 3.5 0 0 0-4.483-5.377A43.59 43.59 0 0 0 46.307 163a73.026 73.026 0 0 1-8.62-6.421A52.74 52.74 0 0 1 44.3 149.8a3.5 3.5 0 0 0-4.418-5.43 58.389 58.389 0 0 0-7.225 7.3A53.574 53.574 0 0 1 18.92 121c-1.932-16.317-2.32-38.943 13.654-55.978zM274.256 10.364c-17.932 19.674-53.562 63.521-90.7 136.138-.011.023-.016.047-.027.07s-.032.047-.045.072a867.333 867.333 0 0 0-16.12 33.291c-1.046 2.04-27.478 53.219-75.282 116.433a13.332 13.332 0 0 0-9.39-2.631 13.19 13.19 0 0 0-8.782 21.525 65.969 65.969 0 0 0 26.614 19.209 12.985 12.985 0 0 0 4.784.913 13.205 13.205 0 0 0 7.423-24.112C157.66 246 197.9 204.789 199.517 203.144a867.087 867.087 0 0 0 26.516-25.784c57.288-58.173 87.711-105.847 100.747-129.088a17.611 17.611 0 0 0-5.064-22.9L297.588 7.955a17.609 17.609 0 0 0-23.332 2.409zM110.327 325.788a5.969 5.969 0 0 1-7.232 2.173 59.043 59.043 0 0 1-23.821-17.193 5.934 5.934 0 0 1-.216-7.547c3.2-3.819 7.926-2.114 9.264-.895a108.81 108.81 0 0 0 19.936 14.388c1.579.886 4.795 4.762 2.069 9.074zm84.364-127.714a1.572 1.572 0 0 0-.1.1c-.417.421-41.755 42.431-87.857 109.467a101.841 101.841 0 0 1-9.317-6.724c49.1-64.872 75.949-117.341 76.216-117.868.022-.042.042-.085.062-.128a870.733 870.733 0 0 1 11.253-23.613c.068.242 5.225 22.085 28.611 20.649a868.89 868.89 0 0 1-18.868 18.117zm98.8-184.444 24.129 17.414a10.614 10.614 0 0 1 3.054 13.8C307.864 67.687 278 114.47 221.743 171.733a44.132 44.132 0 0 1-9.157 1.254 20.964 20.964 0 0 1-20.721-14.954 44.183 44.183 0 0 1-1.694-9.088C226.8 77.505 261.8 34.427 279.43 15.08a10.615 10.615 0 0 1 14.063-1.45z" style="fill:#3c3c4f"/><path d="M123.121 142.491a96.838 96.838 0 0 1 3 2.555c1.47 1.306 4.25.488 4.941-.29a3.5 3.5 0 0 0-.289-4.941 102.456 102.456 0 0 0-3.223-2.746 3.5 3.5 0 0 0-4.427 5.422zM106.048 131.206c1.286.681 2.5 1.564 3.849 2.141a3.862 3.862 0 0 0 4.786-1.262 3.5 3.5 0 0 0-1.261-4.786 114.087 114.087 0 0 0-4.1-2.279 3.5 3.5 0 1 0-3.274 6.186zM94.89 118.613a152.2 152.2 0 0 0-3.261-1.019 3.484 3.484 0 0 0-4.373 2.413 3.482 3.482 0 0 0 2.3 4.237c1.237.395 2.505.782 3.1 1a3.9 3.9 0 0 0 4.436-2.2 3.5 3.5 0 0 0-2.202-4.431zM236.13 321.956c11.193 2.455 23.356-.987 29.667-4.916a39.291 39.291 0 1 0-54.12-12.585 38.5 38.5 0 0 0 24.453 17.501zm-22.551-45.583a32.073 32.073 0 0 1 14.383-20.1c5.187-3.23 17.067-5.775 24.381-4.04a32.289 32.289 0 1 1-38.764 24.136z" style="fill:#3c3c4f"/></g></svg>