<svg xmlns="http://www.w3.org/2000/svg" viewBox="0 0 512 512" style="enable-background:new 0 0 512 512" xml:space="preserve"><circle style="fill:#f44321" cx="256.001" cy="256" r="247.916"/><path style="fill:#d32d20" d="M395.67 429.353c-137.995 0-249.864-111.867-249.864-249.864 0-64.259 24.266-122.846 64.124-167.116C95.028 33.971 8.085 134.824 8.085 256c0 136.92 110.996 247.916 247.916 247.916 71.099 0 135.199-29.939 180.405-77.887a251.469 251.469 0 0 1-40.736 3.324z"/><path style="fill:#231f20" d="m439.599 434.375.302-.309a257.506 257.506 0 0 0 4.012-4.235c.169-.183.341-.364.509-.548a267.411 267.411 0 0 0 3.656-4.055l.734-.829a257.398 257.398 0 0 0 3.285-3.83c.324-.385.651-.769.972-1.154.982-1.18 1.949-2.369 2.907-3.565.403-.502.81-1.004 1.208-1.508a254.15 254.15 0 0 0 2.53-3.264c.484-.632.969-1.263 1.447-1.898.729-.972 1.444-1.952 2.159-2.932.559-.767 1.12-1.535 1.67-2.308.609-.856 1.205-1.719 1.803-2.582.631-.91 1.261-1.818 1.879-2.736.495-.734.979-1.474 1.465-2.212a269.073 269.073 0 0 0 2.067-3.174c.388-.609.767-1.222 1.15-1.835a263.97 263.97 0 0 0 2.231-3.616c.291-.483.574-.971.863-1.456.8-1.346 1.593-2.697 2.367-4.056.204-.358.401-.719.604-1.078.84-1.492 1.668-2.988 2.476-4.495.125-.233.246-.468.37-.701.87-1.634 1.725-3.275 2.558-4.927l.165-.333c13.006-25.879 21.506-53.868 25.079-83.022.009-.071.015-.142.024-.212.245-2.01.469-4.025.667-6.046.028-.283.046-.568.073-.852.171-1.814.333-3.629.467-5.451.04-.548.065-1.098.101-1.646.105-1.563.21-3.126.287-4.695.047-.971.071-1.947.108-2.92.043-1.156.098-2.309.126-3.468a259.618 259.618 0 0 0 0-12.861c-.028-1.15-.083-2.295-.126-3.442-.037-.982-.06-1.966-.109-2.946-.077-1.554-.18-3.102-.283-4.651-.038-.563-.064-1.129-.105-1.691a258.29 258.29 0 0 0-.466-5.439c-.027-.287-.046-.576-.074-.862a255.83 255.83 0 0 0-.665-6.028c-.01-.077-.016-.154-.026-.231-3.329-27.155-10.931-53.302-22.468-77.673l-.003-.006a256.986 256.986 0 0 0-2.603-5.33c-.058-.115-.113-.232-.171-.346a251.902 251.902 0 0 0-2.555-4.92c-.125-.235-.247-.471-.372-.706a245.783 245.783 0 0 0-2.477-4.497c-.201-.357-.398-.716-.599-1.073a267.07 267.07 0 0 0-2.371-4.065c-.287-.482-.568-.967-.858-1.447a258.671 258.671 0 0 0-2.233-3.621c-.382-.611-.761-1.223-1.148-1.831a258.13 258.13 0 0 0-2.072-3.181c-.484-.735-.966-1.471-1.457-2.201-.485-.72-.978-1.436-1.47-2.15-.142-.207-.289-.412-.432-.619-.589-.849-1.177-1.7-1.776-2.544-.414-.581-.832-1.16-1.25-1.739-.221-.305-.445-.607-.666-.911-.633-.866-1.265-1.73-1.909-2.588-.337-.449-.677-.898-1.018-1.346-.297-.392-.6-.781-.901-1.173a267.452 267.452 0 0 0-2.054-2.64c-.259-.327-.516-.653-.776-.979-.372-.467-.749-.929-1.125-1.394a268.254 268.254 0 0 0-2.212-2.698l-.538-.649c-.438-.523-.882-1.042-1.325-1.562a261.49 261.49 0 0 0-2.349-2.722l-.208-.241-.139-.162c-.494-.562-.993-1.118-1.492-1.675a296.754 296.754 0 0 0-2.329-2.572 277.942 277.942 0 0 0-4.327-4.599 274.912 274.912 0 0 0-1.997-2.047c-.456-.463-.901-.935-1.361-1.395-.375-.375-.76-.736-1.136-1.109-.284-.28-.558-.566-.843-.845-.359-.35-.725-.689-1.085-1.038-.9-.872-1.804-1.738-2.715-2.594-.59-.554-1.182-1.104-1.776-1.651a251.51 251.51 0 0 0-2.971-2.704c-.524-.469-1.052-.933-1.579-1.397-1.083-.954-2.172-1.9-3.268-2.835-.443-.377-.889-.75-1.334-1.124a254.17 254.17 0 0 0-3.607-2.978c-.35-.283-.703-.564-1.054-.845a251.427 251.427 0 0 0-3.968-3.117c-.252-.194-.506-.385-.758-.578a261.073 261.073 0 0 0-4.347-3.249l-.431-.313a251.765 251.765 0 0 0-4.746-3.372l-.096-.066c-35.624-24.657-76.77-39.761-120.247-43.958l-.165-.014a262.118 262.118 0 0 0-6.026-.51c-.425-.031-.852-.05-1.276-.078-1.654-.111-3.307-.22-4.967-.3-.898-.043-1.8-.065-2.699-.099-1.195-.045-2.39-.101-3.588-.129A297.923 297.923 0 0 0 256.001 0c-2.115 0-4.225.026-6.333.078-1.174.028-2.342.083-3.514.127-.921.034-1.844.056-2.764.101-1.647.079-3.289.186-4.929.297-.433.029-.869.049-1.302.08-1.997.144-3.988.315-5.976.504l-.203.017c-43.379 4.18-84.437 19.219-120.004 43.773l-.237.163a259.177 259.177 0 0 0-4.603 3.262c-.199.144-.399.287-.597.432a264.54 264.54 0 0 0-4.177 3.115c-.319.243-.638.484-.956.728a256.765 256.765 0 0 0-3.765 2.952c-.429.342-.857.684-1.284 1.029a252.93 252.93 0 0 0-3.378 2.783c-.53.444-1.061.889-1.589 1.338-1.011.86-2.015 1.73-3.014 2.607a257.176 257.176 0 0 0-4.552 4.092 261.183 261.183 0 0 0-4.492 4.23c-.383.37-.773.729-1.154 1.101-.373.363-.733.737-1.103 1.103-.363.359-.735.708-1.096 1.07-.36.36-.708.73-1.066 1.092a267.557 267.557 0 0 0-6.698 7.031 251.925 251.925 0 0 0-4.176 4.662 259.587 259.587 0 0 0-3.612 4.216c-.17.204-.338.41-.509.614a262.1 262.1 0 0 0-3.361 4.121c-.252.316-.502.633-.752.95-.59.747-1.175 1.496-1.757 2.248-.406.527-.812 1.054-1.214 1.583a209.403 209.403 0 0 0-2.618 3.508c-.322.439-.642.878-.961 1.319-.419.579-.839 1.159-1.253 1.741-.499.702-.991 1.408-1.482 2.115a237.82 237.82 0 0 0-2.195 3.196c-.46.682-.911 1.37-1.364 2.057l-.463.703c-.572.873-1.144 1.746-1.704 2.625-.389.611-.77 1.227-1.154 1.841l-.178.283-.143.23a252.321 252.321 0 0 0-1.907 3.099c-.292.484-.576.971-.863 1.457-.8 1.346-1.592 2.696-2.366 4.055-.205.36-.403.722-.606 1.082a257.914 257.914 0 0 0-2.472 4.486c-.128.238-.251.479-.378.718a258.861 258.861 0 0 0-2.547 4.904c-.063.123-.122.247-.183.37a252.241 252.241 0 0 0-2.591 5.306l-.015.032c-11.53 24.363-19.129 50.503-22.457 77.653-.008.059-.012.119-.019.177a260.781 260.781 0 0 0-.672 6.079c-.028.287-.047.576-.074.862-.171 1.81-.332 3.621-.466 5.439-.041.563-.067 1.129-.105 1.691-.103 1.549-.208 3.097-.283 4.651-.047.98-.072 1.964-.109 2.946-.043 1.147-.098 2.292-.126 3.442a264.538 264.538 0 0 0 0 12.861c.028 1.15.083 2.295.126 3.442.037.982.061 1.966.109 2.946.075 1.554.18 3.102.283 4.651.038.563.063 1.129.105 1.691.134 1.819.295 3.633.466 5.443.027.286.046.572.074.857.199 2.031.425 4.054.67 6.074.008.06.013.122.02.182 3.327 27.15 10.927 53.289 22.459 77.656l.015.032a252.241 252.241 0 0 0 2.591 5.306l.183.37c.829 1.644 1.68 3.277 2.546 4.903.127.239.251.48.379.719a256.826 256.826 0 0 0 2.469 4.483c.204.362.403.725.608 1.086a248.334 248.334 0 0 0 2.363 4.05c.289.487.575.977.867 1.463.73 1.209 1.476 2.41 2.227 3.609.384.614.764 1.231 1.154 1.842a248.582 248.582 0 0 0 2.063 3.167c.488.741.973 1.483 1.469 2.219.618.916 1.247 1.825 1.878 2.734.596.861 1.193 1.724 1.801 2.578.552.776 1.115 1.546 1.676 2.316.712.979 1.426 1.955 2.153 2.924.48.638.967 1.272 1.452 1.906.832 1.089 1.67 2.175 2.521 3.252.404.511.815 1.019 1.223 1.527a261.104 261.104 0 0 0 2.889 3.542c.33.396.664.789.997 1.184a270.512 270.512 0 0 0 3.255 3.795c.255.292.514.581.772.872a261.927 261.927 0 0 0 3.615 4.009c.184.201.372.4.557.599a263.414 263.414 0 0 0 3.958 4.178l.364.373c.846.87 1.684 1.746 2.543 2.605.57.57 1.153 1.123 1.729 1.687l.083.083.027.024C124.958 486.021 188.478 512 256.001 512c67.526 0 131.05-25.983 179.189-73.196l.017-.015.052-.052c.585-.574 1.179-1.137 1.761-1.718.872-.873 1.721-1.761 2.579-2.644zm-25.402 1.722c-.612.539-1.223 1.08-1.841 1.613-.827.712-1.664 1.414-2.501 2.116-.621.521-1.24 1.044-1.866 1.56-.848.696-1.706 1.381-2.563 2.065-.63.503-1.257 1.01-1.892 1.507-.872.682-1.754 1.352-2.635 2.021-.633.482-1.263.967-1.9 1.443-.9.67-1.81 1.327-2.72 1.984-.634.459-1.264.923-1.904 1.376-.926.656-1.863 1.298-2.797 1.94-.636.438-1.268.881-1.908 1.312-.958.646-1.927 1.275-2.895 1.907-.63.411-1.254.829-1.887 1.234-.993.635-1.998 1.255-3.001 1.876-.621.385-1.237.777-1.864 1.157-1.036.628-2.084 1.24-3.13 1.853-.604.354-1.202.715-1.808 1.064-1.093.628-2.199 1.237-3.303 1.849-.571.316-1.137.641-1.711.953-1.175.638-2.363 1.257-3.549 1.876-.513.267-1.021.544-1.536.808a241.391 241.391 0 0 1-3.946 1.964c-.405.198-.806.405-1.213.602a240.294 240.294 0 0 1-4.849 2.268c-.126.057-.25.119-.376.176a238.222 238.222 0 0 1-10.716 4.54c-.289.114-.582.22-.872.333-1.509.59-3.021 1.172-4.544 1.731-.548.202-1.102.388-1.651.585-1.273.457-2.546.915-3.829 1.351-.663.225-1.332.434-1.997.654-1.178.389-2.354.78-3.54 1.152-.737.231-1.482.444-2.223.668-1.123.338-2.243.682-3.373 1.006-.788.225-1.583.434-2.375.651-1.09.3-2.178.604-3.276.888-.829.216-1.664.414-2.497.62-1.067.264-2.133.534-3.207.785-.859.201-1.726.384-2.588.576-1.055.234-2.109.472-3.17.692-.883.183-1.771.349-2.656.523-1.05.205-2.098.414-3.152.606-.903.164-1.813.312-2.72.466-1.044.177-2.088.358-3.136.521-.924.144-1.853.272-2.78.405-1.039.15-2.077.302-3.12.438-.944.123-1.894.231-2.841.343-1.033.122-2.065.247-3.102.356-.961.101-1.927.188-2.892.277-1.033.096-2.064.193-3.1.276-.974.078-1.953.141-2.93.207-1.033.07-2.064.14-3.1.197-.988.054-1.98.094-2.972.136-.717.03-1.435.058-2.154.082V333.403c27.011-.387 53.6-2.709 79.067-6.861 3.784 11.667 8.482 23.024 14.102 33.903 14.522 28.106 35.092 53.199 59.792 73.109-.139.126-.276.255-.415.382-.81.727-1.623 1.444-2.438 2.161zM16.477 268.22c-.017-.346-.024-.695-.04-1.042 33.629 25.876 81.452 45.396 136.27 56.338-13.027 38.511-36.985 73.05-69.429 98.699-38.752-40.255-63.61-93.971-66.763-153.355-.011-.214-.027-.426-.038-.64zm478.666 6.023c-.065.856-.15 1.706-.223 2.56-.099 1.148-.191 2.297-.306 3.44-.088.88-.197 1.754-.295 2.631-.124 1.111-.243 2.225-.382 3.332-.112.886-.243 1.766-.364 2.648-.15 1.09-.293 2.182-.458 3.266-.136.893-.289 1.779-.434 2.668-.175 1.068-.343 2.137-.531 3.2-.158.892-.334 1.78-.502 2.668-.199 1.052-.393 2.106-.606 3.154-.18.888-.377 1.771-.567 2.656-.224 1.039-.443 2.08-.68 3.115-.203.885-.421 1.764-.634 2.646-.247 1.025-.492 2.052-.751 3.072-.224.879-.464 1.752-.697 2.627-.272 1.015-.54 2.032-.826 3.043-.245.868-.502 1.73-.757 2.593-.296 1.008-.591 2.016-.899 3.017-.266.861-.544 1.717-.819 2.575-.319.994-.637 1.988-.968 2.975-.287.855-.586 1.704-.883 2.556-.342.982-.683 1.964-1.037 2.939-.306.844-.624 1.684-.94 2.523-.365.972-.731 1.945-1.109 2.911-.326.833-.662 1.661-.996 2.489-.389.963-.778 1.925-1.179 2.881-.345.822-.7 1.639-1.053 2.458-.412.952-.825 1.904-1.248 2.849-.363.811-.735 1.617-1.107 2.423-.434.941-.871 1.881-1.316 2.815-.382.8-.772 1.595-1.163 2.391-.457.929-.915 1.858-1.384 2.781-.4.787-.806 1.569-1.214 2.352-.48.919-.961 1.837-1.452 2.75-.417.775-.841 1.547-1.267 2.317a223.606 223.606 0 0 1-2.834 4.991 253.76 253.76 0 0 1-1.582 2.674 267.617 267.617 0 0 1-3.016 4.881 229.642 229.642 0 0 1-4.583 6.957c-.589.86-1.181 1.715-1.781 2.566a224.1 224.1 0 0 1-3.348 4.643c-.511.691-1.024 1.38-1.542 2.065a257.212 257.212 0 0 1-3.496 4.513 258.36 258.36 0 0 1-1.977 2.453c-.539.661-1.078 1.32-1.623 1.975a275.84 275.84 0 0 1-3.701 4.339c-.695.796-1.399 1.585-2.104 2.37-.564.628-1.127 1.257-1.698 1.879a250.06 250.06 0 0 1-2.169 2.329c-.576.612-1.151 1.224-1.733 1.83-.06.063-.122.124-.182.186-32.416-25.627-56.358-60.126-69.394-98.596 17.161-3.391 33.731-7.615 49.448-12.682a8.085 8.085 0 0 0-4.959-15.389c-15.581 5.023-32.043 9.192-49.114 12.508-4.313-16.872-6.581-34.349-6.581-52.055 0-64.465 29.872-125.934 80.263-165.941 36.941 38.315 61.429 88.719 66.468 144.407l.065.729.004.056c.137 1.57.254 3.145.36 4.723.031.477.063.955.091 1.433l.013.202c.082 1.374.152 2.751.21 4.132.014.336.026.674.039 1.011-17.438 15.537-40.394 29.087-68.298 40.31a8.085 8.085 0 0 0-4.484 10.517 8.087 8.087 0 0 0 10.518 4.483c24.249-9.754 45.072-21.266 62.169-34.32-.008.153-.01.307-.017.46-.04.8-.101 1.594-.149 2.392-.077 1.214-.144 2.435-.236 3.648zM16.92 237.009c4.482-56.946 28.945-108.359 66.358-147.223 50.597 40.001 80.6 101.606 80.6 166.215 0 17.691-2.265 35.153-6.57 52.013-58.772-11.481-108.956-33.08-140.921-61.872.018-.462.031-.927.053-1.388.037-.804.081-1.606.126-2.407.08-1.412.165-2.823.268-4.229l.086-1.109zm137.826-85.453c-14.525-28.109-35.095-53.204-59.801-73.116 40.738-36.985 94.212-60.164 152.971-62.121v300.923c-25.673-.38-50.731-2.571-74.58-6.388 4.424-17.894 6.71-36.35 6.71-54.855.001-36.295-8.747-72.411-25.3-104.443zM268.591 16.509c1.599.085 3.194.184 4.784.301.232.017.464.032.695.05 54.416 4.155 104.129 26.903 142.636 61.861-24.55 19.867-44.996 44.858-59.452 72.834-16.551 32.033-25.3 68.149-25.3 104.444 0 18.515 2.289 36.98 6.717 54.883-24.035 3.823-49.103 5.976-74.587 6.351V16.323c.818.028 1.637.056 2.453.093.686.029 1.371.057 2.054.093zM154.746 360.444c5.634-10.904 10.34-22.289 14.129-33.984 25.29 4.171 51.855 6.556 79.041 6.951v162.27c-58.758-1.956-112.233-25.137-152.969-62.121 24.704-19.911 45.276-45.007 59.799-73.116z"/></svg>