<svg xmlns="http://www.w3.org/2000/svg" viewBox="0 0 512.003 512.003" style="enable-background:new 0 0 512.003 512.003" xml:space="preserve"><path style="fill:#ce8451" d="M467.246 12.529C406.701 3.42 343.94 8.421 285.752 26.986c-60.185 19.204-115.753 53.119-160.701 98.067-44.948 44.95-78.859 100.516-98.063 160.698-18.567 58.191-23.568 120.95-14.46 181.497 2.504 16.649 15.573 29.718 32.223 32.224 60.547 9.109 123.309 4.108 181.497-14.458 60.186-19.202 115.756-53.112 160.703-98.059 44.948-44.951 78.859-100.522 98.061-160.704 18.57-58.191 23.566-120.952 14.461-181.501-2.505-16.65-15.576-29.721-32.227-32.221z"/><path style="fill:#af7146" d="M135.078 278.422c0-116.451 71.466-216.196 172.924-257.815a393.594 393.594 0 0 0-22.25 6.381c-60.185 19.204-115.753 53.119-160.701 98.067-44.948 44.95-78.859 100.516-98.063 160.698C8.421 343.942 3.42 406.701 12.528 467.248c2.504 16.649 15.573 29.718 32.223 32.224 60.547 9.109 123.309 4.108 181.497-14.458l.391-.129c-56.237-50.968-91.561-124.589-91.561-206.463z"/><path style="fill:#8c552c" d="M461.309 197.464c10.23 4.163 20.138 7.127 29.476 8.812 13.727-52.432 16.763-107.845 8.688-161.523-2.504-16.651-15.574-29.721-32.225-32.224-53.677-8.076-109.088-5.035-161.518 8.694 6.327 35.07 30.701 78.156 68.8 116.256 19.904 19.904 41.17 36.063 61.943 47.859"/><path style="fill:#7c4825" d="M97.334 459.54a319.26 319.26 0 0 1-23.537-21.327c-29.016-29.017-50.065-60.922-61.252-89.981-5.854 39.369-5.934 79.658-.015 119.018 2.504 16.649 15.573 29.72 32.224 32.224 39.359 5.923 79.646 5.843 119.013-.011-14.213-5.472-29.109-13.306-44.013-23.276"/><path style="fill:#231f20" d="m510.058 64.405-.082-.831a406.48 406.48 0 0 0-.432-4.144c-.064-.581-.132-1.162-.198-1.743-.132-1.149-.262-2.297-.404-3.446-.107-.871-.223-1.739-.335-2.608-.118-.907-.231-1.815-.355-2.721-.2-1.461-.41-2.92-.626-4.378-.049-.331-.092-.661-.142-.99-2.661-17.692-14.925-31.875-31.469-37.242l-.183-.063c-.281-.09-.567-.168-.85-.254-.316-.095-.631-.194-.951-.283l-.055-.014a47.213 47.213 0 0 0-5.523-1.17 389.532 389.532 0 0 0-8.443-1.17 406.355 406.355 0 0 0-5.62-.684c-.414-.048-.826-.099-1.241-.146a397.593 397.593 0 0 0-6.073-.623c-1.008-.097-2.016-.187-3.024-.277-1.019-.09-2.038-.174-3.059-.256A411.75 411.75 0 0 0 407.78 0c-42.53 0-84.413 6.483-124.49 19.269-61.407 19.595-118.105 54.194-163.969 100.057-45.86 45.862-80.458 102.56-100.052 163.964C6.486 323.355.016 365.542.01 407.725v.376c.003 4.893.091 9.785.269 14.674.015.436.037.872.054 1.308.075 1.872.161 3.744.26 5.614.036.67.072 1.34.112 2.01.105 1.802.223 3.601.352 5.402.038.534.071 1.068.112 1.602.174 2.304.366 4.606.58 6.906.037.399.08.796.118 1.195.184 1.914.379 3.827.59 5.739.072.659.148 1.318.225 1.977.203 1.763.417 3.524.644 5.285.073.569.144 1.138.219 1.708.307 2.315.628 4.626.975 6.934 1.239 8.244 4.565 15.729 9.438 21.914 7.12 9.039 17.544 15.305 29.593 17.118a406.196 406.196 0 0 0 60.481 4.516h.044l.15.001h.004c42.523 0 84.409-6.484 124.483-19.269 61.409-19.594 118.108-54.189 163.969-100.05 45.86-45.864 80.458-102.563 100.052-163.97 16.815-52.703 22.713-109.086 17.324-164.31zm-128.834 316.82c-44.039 44.039-98.482 77.259-157.439 96.069a389.773 389.773 0 0 1-58.949 13.864c-13.275-5.285-26.912-12.566-40.579-21.706a8.098 8.098 0 0 0-11.236 2.228 8.099 8.099 0 0 0 2.228 11.236 262.428 262.428 0 0 0 19.183 11.706c-5.545.428-11.092.737-16.634.931-.193.007-.387.011-.581.016a402.22 402.22 0 0 1-7.524.174c-1.438.019-2.875.037-4.314.041a419.587 419.587 0 0 1-7.449-.047c-.477-.008-.956-.012-1.433-.021a396.046 396.046 0 0 1-13.999-.523l-.569-.032c-2.311-.131-4.622-.28-6.929-.451l-.087-.007a393.94 393.94 0 0 1-14.119-1.312c-.351-.039-.701-.08-1.052-.12a398.206 398.206 0 0 1-5.705-.693l-1.403-.18c-2.23-.295-4.455-.606-6.674-.939-9.085-1.367-16.751-6.622-21.302-14.066a30.392 30.392 0 0 1-4.114-11.351 389.05 389.05 0 0 1-2.084-16.173c-.011-.104-.024-.206-.036-.31-.16-1.495-.305-2.992-.447-4.489-.033-.356-.072-.712-.106-1.068a382.46 382.46 0 0 1-.366-4.284c-.035-.42-.073-.839-.107-1.259a404.157 404.157 0 0 1-.314-4.417c-.025-.37-.054-.74-.078-1.11a412.561 412.561 0 0 1-.277-4.852c-.011-.216-.025-.432-.036-.647a394.347 394.347 0 0 1 .692-49.894c12.603 22.836 30.012 45.724 50.685 66.399a328.278 328.278 0 0 0 24.134 21.868 8.104 8.104 0 0 0 11.401-1.139 8.104 8.104 0 0 0-1.14-11.401 312.157 312.157 0 0 1-22.939-20.785c-26.542-26.544-47.294-56.754-58.665-85.298 3.091-19.996 7.708-39.741 13.845-58.973 18.813-58.951 52.035-113.39 96.075-157.433 44.042-44.043 98.482-77.266 157.435-96.077a386.774 386.774 0 0 1 11.404-3.428c8.98 36.246 33.791 76.536 69.184 111.93 19.708 19.709 41.726 36.713 63.669 49.173a8.1 8.1 0 1 0 8.002-14.088c-20.699-11.754-41.521-27.847-60.216-46.543-32.935-32.936-56.76-71.44-64.969-104.575 42.703-10.266 87.556-13.338 131.21-9.051.66.065 1.32.135 1.98.203 2.246.232 4.487.487 6.725.758.772.094 1.546.184 2.317.282a379.392 379.392 0 0 1 8.525 1.174c1.184.178 2.333.444 3.465.75 11.505 3.111 20.145 12.633 21.955 24.668.432 2.873.823 5.755 1.19 8.642.049.38.099.759.146 1.14.362 2.918.693 5.842.989 8.774l.041.409c4.373 43.841 1.316 88.904-8.996 131.794-6.579-1.632-13.436-3.893-20.471-6.756a8.101 8.101 0 0 0-6.105 15.007c7.68 3.125 15.206 5.598 22.48 7.413a387.792 387.792 0 0 1-3.441 11.407c-18.816 58.959-52.037 113.4-96.076 157.442z"/><path style="fill:#231f20" d="m318.476 204.985 13.635-13.635a8.1 8.1 0 1 0-11.457-11.457l-13.635 13.635-19.053-19.054a8.1 8.1 0 1 0-11.457 11.457l19.054 19.054-20.359 20.359-19.052-19.053a8.098 8.098 0 0 0-11.455-.001 8.098 8.098 0 0 0 0 11.456l19.052 19.053-20.358 20.358-19.052-19.052a8.1 8.1 0 1 0-11.457 11.457l19.052 19.052-20.358 20.358-19.051-19.052a8.1 8.1 0 1 0-11.457 11.455l19.052 19.053-20.357 20.357-19.053-19.053a8.1 8.1 0 1 0-11.457 11.457l19.053 19.053-20.358 20.358-18.04-18.041a8.1 8.1 0 1 0-11.457 11.455l18.041 18.042-14.942 14.942a8.1 8.1 0 0 0 0 11.457c1.581 1.581 3.654 2.372 5.728 2.372s4.147-.791 5.728-2.372l14.943-14.943 20.065 20.066c1.582 1.582 3.656 2.373 5.729 2.373s4.147-.791 5.729-2.372a8.1 8.1 0 0 0 0-11.456l-20.066-20.067 20.358-20.358 19.055 19.055c1.582 1.581 3.656 2.372 5.729 2.372s4.147-.791 5.729-2.372a8.1 8.1 0 0 0 0-11.457l-19.055-19.055 20.357-20.357 19.054 19.055a8.072 8.072 0 0 0 5.728 2.373 8.077 8.077 0 0 0 5.728-2.372 8.098 8.098 0 0 0 0-11.456l-19.053-19.055 20.359-20.359 19.054 19.054a8.08 8.08 0 0 0 5.729 2.372 8.1 8.1 0 0 0 5.729-13.829l-19.054-19.054 20.358-20.358 19.054 19.054a8.072 8.072 0 0 0 5.728 2.373 8.077 8.077 0 0 0 5.728-2.372 8.098 8.098 0 0 0 0-11.456L286.667 236.8l20.36-20.359 19.054 19.054a8.075 8.075 0 0 0 5.728 2.372 8.077 8.077 0 0 0 5.728-2.372 8.1 8.1 0 0 0 0-11.457l-19.061-19.053z"/></svg>